<?xml version="1.0" standalone="no"?>
<!DOCTYPE svg PUBLIC "-//W3C//DTD SVG 20010904//EN"
 "http://www.w3.org/TR/2001/REC-SVG-20010904/DTD/svg10.dtd">
<svg version="1.0" xmlns="http://www.w3.org/2000/svg"
 width="16.000000pt" height="16.000000pt" viewBox="0 0 16.000000 16.000000"
 preserveAspectRatio="xMidYMid meet">
<metadata>
Created by potrace 1.11, written by Peter Selinger 2001-2013
</metadata>
<g transform="translate(0.000000,16.000000) scale(0.005674,-0.005674)"
fill="#000000" stroke="none">
<path d="M553 2743 c-83 -127 -117 -249 -117 -428 0 -141 15 -233 79 -505 59
-246 60 -251 60 -355 0 -77 3 -92 19 -106 19 -16 19 -16 -2 -46 -28 -40 -76
-145 -97 -213 -42 -138 -21 -361 52 -545 20 -49 35 -103 35 -120 0 -16 -1 -64
-3 -105 -4 -109 15 -218 49 -287 23 -46 54 -43 127 12 35 26 71 45 86 45 14 0
62 -16 105 -37 55 -25 94 -36 128 -37 44 -1 51 3 85 42 20 23 43 42 51 42 8 0
48 -23 88 -50 68 -46 78 -50 132 -50 57 0 60 2 91 40 32 40 42 45 90 54 25 4
39 -3 102 -47 23 -17 52 -22 99 -18 10 1 22 17 30 44 12 34 20 43 44 48 35 6
77 -6 127 -39 33 -22 43 -24 75 -16 52 13 52 39 -4 159 -52 112 -79 178 -87
215 -5 21 1 30 35 54 39 28 41 28 52 10 24 -40 48 -111 60 -172 11 -62 11 -62
34 -46 12 8 33 36 46 62 27 54 74 198 82 251 3 20 7 42 9 49 10 29 19 144 18
237 l-1 101 26 -1 c25 0 26 2 23 50 -1 28 -12 75 -23 105 -11 30 -21 84 -23
120 -2 36 -7 94 -10 130 -4 36 -8 99 -9 140 -1 41 -5 86 -10 100 -13 44 -39
100 -46 100 -4 0 -12 11 -18 25 -10 23 -9 25 11 26 12 1 25 1 30 0 12 -2 8 19
-9 48 -20 34 -100 89 -185 127 l-66 29 5 61 c5 73 -10 170 -44 279 -29 91
-128 304 -174 371 -16 25 -30 50 -30 56 0 5 -7 7 -16 4 -9 -3 -18 -6 -20 -6
-2 0 -4 -21 -4 -47 0 -115 -83 -276 -260 -502 -48 -61 -59 -71 -87 -71 -37 0
-121 21 -176 44 -139 58 -339 237 -500 446 -48 63 -98 128 -110 143 l-22 28
-32 -48z"/>
</g>
</svg>
